{
	"asset":{
		"generator":"Khronos glTF Blender I/O v4.0.44",
		"version":"2.0"
	},
	"scene":0,
	"scenes":[
		{
			"name":"Scene",
			"nodes":[
				9,
				10
			]
		}
	],
	"nodes":[
		{
			"mesh":0,
			"name":"Object001_Chain_0"
		},
		{
			"children":[
				0
			],
			"name":"Object_8",
			"translation":[
				0,
				0,
				5.436071395874023
			]
		},
		{
			"children":[
				1
			],
			"name":"Object001",
			"rotation":[
				0,
				0,
				0.3826833963394165,
				0.9238795638084412
			],
			"scale":[
				3.611802101135254,
				3.611802101135254,
				3.611801862716675
			],
			"translation":[
				2.979136843350716e-05,
				-4.604120840667747e-05,
				0
			]
		},
		{
			"mesh":1,
			"name":"Object002_Box_0"
		},
		{
			"children":[
				3
			],
			"name":"Object_11",
			"translation":[
				0,
				0,
				5.436071395874023
			]
		},
		{
			"children":[
				4
			],
			"name":"Object002",
			"rotation":[
				0,
				0,
				0.3826833963394165,
				0.9238795638084412
			],
			"scale":[
				3.611802101135254,
				3.611802101135254,
				3.611801862716675
			],
			"translation":[
				2.979136843350716e-05,
				-4.604120840667747e-05,
				0
			]
		},
		{
			"children":[
				2,
				5
			],
			"name":"RootNode"
		},
		{
			"children":[
				6
			],
			"name":"Object_2"
		},
		{
			"children":[
				7
			],
			"name":"12bba42516ee49ffbf57782b359808b7.fbx",
			"rotation":[
				1,
				0,
				0,
				0
			]
		},
		{
			"children":[
				8
			],
			"name":"Sketchfab_model",
			"rotation":[
				-0.70710688829422,
				0,
				0,
				0.7071066498756409
			],
			"translation":[
				0,
				40,
				0
			]
		},
		{
			"name":"Object_5",
			"rotation":[
				0,
				0,
				0.3826833963394165,
				0.9238795638084412
			],
			"scale":[
				3.611802101135254,
				3.611802101135254,
				3.611801862716675
			],
			"translation":[
				0,
				0,
				19.634008407592773
			]
		}
	],
	"materials":[
		{
			"alphaMode":"BLEND",
			"doubleSided":true,
			"name":"Chain",
			"normalTexture":{
				"index":0
			},
			"occlusionTexture":{
				"index":1
			},
			"pbrMetallicRoughness":{
				"baseColorFactor":[
					0.800000011920929,
					0.800000011920929,
					0.800000011920929,
					0.21818184852600098
				],
				"metallicRoughnessTexture":{
					"index":1
				}
			}
		},
		{
			"doubleSided":true,
			"emissiveFactor":[
				1,
				1,
				1
			],
			"emissiveTexture":{
				"index":2
			},
			"name":"material",
			"normalTexture":{
				"index":3
			},
			"occlusionTexture":{
				"index":4
			},
			"pbrMetallicRoughness":{
				"baseColorTexture":{
					"index":5
				},
				"metallicRoughnessTexture":{
					"index":4
				}
			}
		}
	],
	"meshes":[
		{
			"name":"Object001_Chain_0",
			"primitives":[
				{
					"attributes":{
						"POSITION":0,
						"NORMAL":1,
						"TEXCOORD_0":2
					},
					"indices":3,
					"material":0
				}
			]
		},
		{
			"name":"Object002_Box_0",
			"primitives":[
				{
					"attributes":{
						"POSITION":4,
						"NORMAL":5,
						"TEXCOORD_0":6
					},
					"indices":7,
					"material":1
				}
			]
		}
	],
	"textures":[
		{
			"sampler":0,
			"source":0
		},
		{
			"sampler":0,
			"source":1
		},
		{
			"sampler":0,
			"source":2
		},
		{
			"sampler":0,
			"source":3
		},
		{
			"sampler":0,
			"source":4
		},
		{
			"sampler":0,
			"source":5
		}
	],
	"images":[
		{
			"mimeType":"image/png",
			"name":"Chain_normal",
			"uri":"texture/Chain_normal.png"
		},
		{
			"mimeType":"image/png",
			"name":"Chain_metallicRoughness",
			"uri":"texture/Chain_metallicRoughness.png"
		},
		{
			"mimeType":"image/png",
			"name":"material_emissive",
			"uri":"texture/material_emissive.png"
		},
		{
			"mimeType":"image/png",
			"name":"material_normal",
			"uri":"texture/material_normal.png"
		},
		{
			"mimeType":"image/png",
			"name":"material_metallicRoughness",
			"uri":"texture/material_metallicRoughness.png"
		},
		{
			"mimeType":"image/png",
			"name":"material_baseColor",
			"uri":"texture/material_baseColor.png"
		}
	],
	"accessors":[
		{
			"bufferView":0,
			"componentType":5126,
			"count":24,
			"max":[
				6.363961219787598,
				6.3639607429504395,
				4.500001430511475
			],
			"min":[
				-6.363961219787598,
				-6.363962650299072,
				-4.500001430511475
			],
			"type":"VEC3"
		},
		{
			"bufferView":1,
			"componentType":5126,
			"count":24,
			"type":"VEC3"
		},
		{
			"bufferView":2,
			"componentType":5126,
			"count":24,
			"type":"VEC2"
		},
		{
			"bufferView":3,
			"componentType":5123,
			"count":36,
			"type":"SCALAR"
		},
		{
			"bufferView":4,
			"componentType":5126,
			"count":1218,
			"max":[
				7.235971927642822,
				7.235970973968506,
				5.437797546386719
			],
			"min":[
				-7.235971927642822,
				-7.235972881317139,
				-5.437797546386719
			],
			"type":"VEC3"
		},
		{
			"bufferView":5,
			"componentType":5126,
			"count":1218,
			"type":"VEC3"
		},
		{
			"bufferView":6,
			"componentType":5126,
			"count":1218,
			"type":"VEC2"
		},
		{
			"bufferView":7,
			"componentType":5123,
			"count":1920,
			"type":"SCALAR"
		}
	],
	"bufferViews":[
		{
			"buffer":0,
			"byteLength":288,
			"byteOffset":0,
			"target":34962
		},
		{
			"buffer":0,
			"byteLength":288,
			"byteOffset":288,
			"target":34962
		},
		{
			"buffer":0,
			"byteLength":192,
			"byteOffset":576,
			"target":34962
		},
		{
			"buffer":0,
			"byteLength":72,
			"byteOffset":768,
			"target":34963
		},
		{
			"buffer":0,
			"byteLength":14616,
			"byteOffset":840,
			"target":34962
		},
		{
			"buffer":0,
			"byteLength":14616,
			"byteOffset":15456,
			"target":34962
		},
		{
			"buffer":0,
			"byteLength":9744,
			"byteOffset":30072,
			"target":34962
		},
		{
			"buffer":0,
			"byteLength":3840,
			"byteOffset":39816,
			"target":34963
		}
	],
	"samplers":[
		{
			"magFilter":9729,
			"minFilter":9987
		}
	],
	"buffers":[
		{
			"byteLength":43656,
			"uri":"untitled.bin"
		}
	]
}
