<svg width="22" height="17" viewBox="0 0 22 17" fill="none" xmlns="http://www.w3.org/2000/svg">
<g id="Gamepad">
<path id="Rectangle 74" d="M1 6.00049C1 3.04238 3.55409 0.730958 6.49752 1.0253L10.403 1.41585C10.8 1.45555 11.2 1.45555 11.597 1.41585L15.5025 1.0253C18.4459 0.730958 21 3.04238 21 6.00049V12C21 15.5932 16.3041 16.9552 14.3815 13.9196C13.0112 11.7559 9.88031 11.6836 8.4116 13.7818L8.12736 14.1878C5.93073 17.3259 1 15.7716 1 11.9411V6.00049Z" stroke="#DADADA" stroke-width="2"/>
<g id="Group 225">
<circle id="Ellipse 39" cx="17" cy="5.97554" r="1.3" fill="#DADADA"/>
<circle id="Ellipse 40" cx="15" cy="8.97563" r="1.2" fill="#DADADA"/>
</g>
<path id="Line" d="M7 9.47559L7 5.47559" stroke="#DADADA" stroke-width="2" stroke-linecap="round" stroke-linejoin="round"/>
<path id="Line_2" d="M5 7.47559L9 7.47559" stroke="#DADADA" stroke-width="2" stroke-linecap="round" stroke-linejoin="round"/>
</g>
</svg>
