<svg width="21" height="21" viewBox="0 0 21 21" fill="none" xmlns="http://www.w3.org/2000/svg">
<g id="Socials / Paper_Plane">
<path id="Vector" d="M9.22228 11.7777L13.1516 7.84842M17.1711 5.45043L13.8544 16.2298C13.5571 17.1958 13.4084 17.6791 13.152 17.8393C12.9297 17.9782 12.6543 18.0014 12.4122 17.9009C12.1329 17.7851 11.9062 17.3326 11.4541 16.4283L9.35332 12.2267C9.28157 12.0832 9.24566 12.0118 9.19773 11.9496C9.1552 11.8944 9.10612 11.8447 9.05095 11.8022C8.99018 11.7553 8.91993 11.7202 8.78283 11.6517L4.5716 9.54605C3.6673 9.0939 3.21511 8.86762 3.09923 8.58836C2.99874 8.34618 3.02166 8.07061 3.1606 7.84824C3.3208 7.59183 3.80401 7.44287 4.77034 7.14554L15.5497 3.82881C16.3094 3.59505 16.6894 3.47827 16.946 3.57247C17.1696 3.65453 17.3458 3.83056 17.4278 4.05408C17.522 4.31056 17.4051 4.69037 17.1716 5.44931L17.1711 5.45043Z" stroke="white" stroke-width="2" stroke-linecap="round" stroke-linejoin="round"/>
</g>
</svg>
