<svg width="26" height="26" viewBox="0 0 22 21" fill="none" xmlns="http://www.w3.org/2000/svg">
<path fill-rule="evenodd" clip-rule="evenodd" d="M19.9055 8.66163C19.006 8.0657 17.7822 8.16398 16.9897 8.95648C16.1972 9.74897 16.0989 10.9728 16.6948 11.8723L19.9055 8.66163ZM20.5607 9.31686L17.3501 12.5275C18.2495 13.1234 19.4734 13.0251 20.2659 12.2326C21.0583 11.4402 21.1566 10.2163 20.5607 9.31686ZM16.3344 8.30124C17.601 7.03468 19.6545 7.03468 20.9211 8.30124C22.1876 9.56781 22.1876 11.6213 20.9211 12.8879C19.6545 14.1544 17.601 14.1544 16.3344 12.8879C15.0679 11.6213 15.0679 9.56781 16.3344 8.30124Z" fill="white"/>
<path d="M15.3844 16.2701C15.3844 14.4789 13.2063 13.0268 10.5195 13.0268C7.83274 13.0268 5.65466 14.4789 5.65466 16.2701M10.5195 10.5944C8.72833 10.5944 7.27628 9.14235 7.27628 7.35115C7.27628 5.55996 8.72833 4.10791 10.5195 4.10791C12.3107 4.10791 13.7628 5.55996 13.7628 7.35115C13.7628 9.14235 12.3107 10.5944 10.5195 10.5944Z" stroke="white" stroke-width="2" stroke-linecap="round" stroke-linejoin="round"/>
</svg>
