<svg width="20" height="20" viewBox="0 0 20 20" fill="none" xmlns="http://www.w3.org/2000/svg">
<path d="M12.1622 15.4053C12.1622 13.6141 9.98409 12.1621 7.2973 12.1621C4.61051 12.1621 2.43243 13.6141 2.43243 15.4053M12.1622 10.5405H17.027M7.2973 9.72965C5.50611 9.72965 4.05406 8.2776 4.05406 6.48641C4.05406 4.69521 5.50611 3.24316 7.2973 3.24316C9.08849 3.24316 10.5405 4.69521 10.5405 6.48641C10.5405 8.2776 9.08849 9.72965 7.2973 9.72965Z" stroke="white" stroke-width="2" stroke-linecap="round" stroke-linejoin="round"/>
<path d="M13.5 8C13.5 7.44772 13.9477 7 14.5 7V7C15.0523 7 15.5 7.44772 15.5 8V12.8C15.5 13.3523 15.0523 13.8 14.5 13.8V13.8C13.9477 13.8 13.5 13.3523 13.5 12.8V8Z" fill="white"/>
</svg>
