<svg width="35" height="26" viewBox="0 0 35 26" fill="none" xmlns="http://www.w3.org/2000/svg">
<path d="M1 9.07274C1 4.2972 5.12584 0.565661 9.88061 1.04085L16.1894 1.67134C16.8308 1.73543 17.4769 1.73543 18.1183 1.67134L24.4271 1.04085C29.1819 0.565662 33.3077 4.2972 33.3077 9.07274V18.7583C33.3077 24.5592 25.722 26.7579 22.6163 21.8572C20.4027 18.3642 15.3451 18.2475 12.9726 21.6347L12.5134 22.2903C8.96502 27.3563 1 24.8471 1 18.6632V9.07274Z" stroke="#00C2FF" stroke-width="2"/>
<circle cx="26.6223" cy="9.24037" r="2.30653" fill="#00C2FF"/>
<ellipse cx="23.074" cy="14.5632" rx="2.1291" ry="2.1291" fill="#00C2FF"/>
<path d="M10.2309 15.7691L10.2309 8.38452" stroke="#00C2FF" stroke-width="2" stroke-linecap="round" stroke-linejoin="round"/>
<path d="M6.53854 12.0769L13.9232 12.0769" stroke="#00C2FF" stroke-width="2" stroke-linecap="round" stroke-linejoin="round"/>
</svg>
