<svg width="37" height="37" viewBox="0 0 37 37" fill="none" xmlns="http://www.w3.org/2000/svg">
<path d="M27.4667 8.3079V8.3079C27.6195 6.32126 26.0487 4.625 24.0562 4.625H12.9437C10.9512 4.625 9.38044 6.32126 9.53326 8.3079V8.3079M27.4667 8.3079L26.7995 16.981C26.6448 18.9926 26.5674 19.9984 26.2544 20.8146C25.5874 22.5544 24.1499 23.8856 22.3641 24.4172C21.5263 24.6667 20.5175 24.6667 18.5 24.6667V24.6667M27.4667 8.3079V8.3079C30.4758 8.3079 32.798 10.9552 32.406 13.9386L32.2607 15.0446C31.885 17.9039 29.4479 20.0417 26.5641 20.0417V20.0417M9.53326 8.3079L10.2004 16.981C10.3552 18.9926 10.4325 19.9984 10.7455 20.8146C11.4125 22.5544 12.85 23.8856 14.6358 24.4172C15.4737 24.6667 16.4824 24.6667 18.5 24.6667V24.6667M9.53326 8.3079V8.3079C6.52416 8.3079 4.20195 10.9552 4.59393 13.9386L4.73924 15.0446C5.11491 17.9039 7.55197 20.0417 10.4359 20.0417V20.0417M18.5 24.6667V27.75M18.5 27.75L23.4221 30.7033C24.4114 31.2968 24.906 31.5936 24.9031 31.88C24.9022 31.9672 24.8786 32.0527 24.8345 32.1279C24.6896 32.375 24.1127 32.375 22.959 32.375H14.0409C12.8872 32.375 12.3103 32.375 12.1655 32.1279C12.1214 32.0527 12.0977 31.9672 12.0968 31.88C12.0939 31.5936 12.5886 31.2968 13.5779 30.7033L18.5 27.75Z" stroke="white" stroke-width="2" stroke-linejoin="round"/>
<path d="M17.6929 10.4998C18.0024 9.87273 18.1571 9.5592 18.3896 9.5066C18.4623 9.49017 18.5377 9.49017 18.6103 9.5066C18.8428 9.5592 18.9976 9.87273 19.307 10.4998L19.958 11.8187C20.0489 12.0031 20.0944 12.0952 20.1678 12.1602C20.192 12.1817 20.2181 12.2007 20.246 12.217C20.3305 12.2667 20.4322 12.2815 20.6356 12.3111L22.0911 12.5226C22.7831 12.6231 23.1291 12.6734 23.251 12.8783C23.2891 12.9423 23.3124 13.014 23.3192 13.0881C23.341 13.3256 23.0907 13.5696 22.5899 14.0577L21.5367 15.0844C21.3895 15.2278 21.3159 15.2996 21.2767 15.3894C21.2638 15.419 21.2538 15.4498 21.2469 15.4814C21.2257 15.5771 21.2431 15.6784 21.2779 15.881L21.5265 17.3306C21.6447 18.0198 21.7038 18.3644 21.5466 18.5437C21.4975 18.5997 21.4365 18.644 21.3681 18.6734C21.1491 18.7675 20.8396 18.6048 20.2206 18.2794L18.9188 17.595C18.7368 17.4993 18.6459 17.4515 18.5483 17.442C18.5161 17.4389 18.4838 17.4389 18.4516 17.442C18.3541 17.4515 18.2631 17.4993 18.0812 17.595L16.7793 18.2794C16.1603 18.6048 15.8509 18.7675 15.6318 18.6734C15.5634 18.644 15.5024 18.5997 15.4533 18.5437C15.2961 18.3644 15.3552 18.0198 15.4734 17.3306L15.7221 15.881C15.7568 15.6784 15.7742 15.5771 15.753 15.4814C15.7461 15.4498 15.7361 15.419 15.7232 15.3894C15.684 15.2996 15.6104 15.2278 15.4632 15.0844L14.41 14.0577C13.9092 13.5696 13.6589 13.3256 13.6807 13.0881C13.6875 13.014 13.7108 12.9423 13.7489 12.8783C13.8708 12.6734 14.2168 12.6231 14.9088 12.5226L16.3643 12.3111C16.5677 12.2815 16.6694 12.2667 16.7539 12.217C16.7818 12.2007 16.808 12.1817 16.8321 12.1602C16.9055 12.0952 16.951 12.0031 17.042 11.8187L17.6929 10.4998Z" stroke="white" stroke-width="2" stroke-linejoin="round"/>
</svg>
